# xmcd
#
# Track frame offsets: 
#        150
#        12237
#        23880
#        36917
#        50947
#        63437
#        74397
#        83997
#        97352
#        108812
#        122200
#        135332
#        148235
#        160760
#        183272
#        208632
#        212567
#        214772
#        232577
#        249542
#
# Disc length: 3586 seconds
#
# Revision: 5
# Processed by: cddbd v1.5.1PL0 Copyright (c) Steve Scherf et al.
# Submitted via: ExactAudioCopy v0.90b4
#
DISCID=230e0014
DTITLE=Howlin' Wolf - Ain't Gonna Be Your Dog [CD2]
DYEAR=1994
DGENRE=Blues
TTITLE0=My Baby Told Me (Alternate Take) (Previously Unreleased)
TTITLE1=Midnight Blues (Alternate To - Moaning For My Baby)
TTITLE2=You Can't Put Me Out
TTITLE3=Getting Late
TTITLE4=Wolf In The Mood
TTITLE5=My People's Gone
TTITLE6=Mama's Baby
TTITLE7=Tail Dragger (Alternate Take) (Previously Unreleased)
TTITLE8=Long Green Stuff
TTITLE9=Joy To My Soul
TTITLE10=Poor Wind That Never Change
TTITLE11=Pop It To Me
TTITLE12=I Had A Dream
TTITLE13=The Big House (Previously Unreleased)
TTITLE14=Tired Of Crying
TTITLE15=Rollin' And Tumblin' (Acoustic Fragment)
TTITLE16=More Howlin' Wolf Talks (Previously Unreleased)
TTITLE17=I Ain't Gonna Be Your Dog No More (Acoustic) (Previoulsy Unre
TTITLE17=leased)
TTITLE18=Woke Up This Morning (Acoustic) (Previoulsy Unreleased)
TTITLE19=Ain't Going Down That Dirt Road (2nd Acoustic Version) (Previ
TTITLE19=oulsy Unreleased)
EXTD=
EXTT0=
EXTT1=
EXTT2=
EXTT3=
EXTT4=
EXTT5=
EXTT6=
EXTT7=
EXTT8=
EXTT9=
EXTT10=
EXTT11=
EXTT12=
EXTT13=
EXTT14=
EXTT15=
EXTT16=
EXTT17=
EXTT18=
EXTT19=
PLAYORDER=
